<?xml version="1.0" standalone="no"?>
<!DOCTYPE svg PUBLIC "-//W3C//DTD SVG 20010904//EN"
 "http://www.w3.org/TR/2001/REC-SVG-20010904/DTD/svg10.dtd">
<svg version="1.0" xmlns="http://www.w3.org/2000/svg"
 width="17.000000pt" height="22.000000pt" viewBox="0 0 17.000000 22.000000"
 preserveAspectRatio="xMidYMid meet">
<metadata>
Created by potrace 1.15, written by Peter Selinger 2001-2017
</metadata>
<g transform="translate(0.000000,22.000000) scale(0.100000,-0.100000)"
fill="#000000" stroke="none">
<path d="M25 195 c-27 -26 -33 -73 -13 -93 20 -20 31 -13 25 17 -8 39 16 71
53 71 38 0 54 -27 39 -69 -16 -46 -41 -41 -37 6 2 32 0 38 -17 38 -16 0 -21
-11 -30 -73 -13 -81 -3 -117 17 -64 10 27 17 32 45 32 40 0 63 30 63 82 0 51
-28 78 -80 78 -30 0 -47 -7 -65 -25z"/>
</g>
</svg>
